<?xml version="1.0" encoding="UTF-8" standalone="no"?>
<svg
   xmlns:dc="http://purl.org/dc/elements/1.1/"
   xmlns:cc="http://creativecommons.org/ns#"
   xmlns:rdf="http://www.w3.org/1999/02/22-rdf-syntax-ns#"
   xmlns:svg="http://www.w3.org/2000/svg"
   xmlns="http://www.w3.org/2000/svg"
   xmlns:sodipodi="http://sodipodi.sourceforge.net/DTD/sodipodi-0.dtd"
   xmlns:inkscape="http://www.inkscape.org/namespaces/inkscape"
   width="200"
   height="200"
   viewBox="0 0 52.916666 52.916666"
   version="1.1"
   id="svg8"
   inkscape:version="0.92.3 (2405546, 2018-03-11)"
   sodipodi:docname="logo.svg"
   inkscape:export-filename="E:\projekty\pitza'n'fryty\assets\logo.png"
   inkscape:export-xdpi="96"
   inkscape:export-ydpi="96">
  <defs
     id="defs2">
    <inkscape:perspective
       sodipodi:type="inkscape:persp3d"
       inkscape:vp_x="-2.3640286 : 26.120615 : 1"
       inkscape:vp_y="0 : 1000 : 0"
       inkscape:vp_z="59.671033 : 26.458333 : 1"
       inkscape:persp3d-origin="26.458333 : 17.638889 : 1"
       id="perspective21" />
  </defs>
  <sodipodi:namedview
     id="base"
     pagecolor="#ffffff"
     bordercolor="#666666"
     borderopacity="1.0"
     inkscape:pageopacity="0.0"
     inkscape:pageshadow="2"
     inkscape:zoom="2.2159134"
     inkscape:cx="86.754381"
     inkscape:cy="78.068188"
     inkscape:document-units="px"
     inkscape:current-layer="layer1"
     inkscape:document-rotation="0"
     showgrid="false"
     showguides="true"
     inkscape:guide-bbox="true"
     inkscape:lockguides="false"
     units="px"
     inkscape:window-width="1920"
     inkscape:window-height="1017"
     inkscape:window-x="0"
     inkscape:window-y="30"
     inkscape:window-maximized="1">
    <sodipodi:guide
       position="26.458333,52.916666"
       orientation="-1,0"
       id="guide13"
       inkscape:locked="false"
       inkscape:label=""
       inkscape:color="rgb(0,0,255)" />
  </sodipodi:namedview>
  <metadata
     id="metadata5">
    <rdf:RDF>
      <cc:Work
         rdf:about="">
        <dc:format>image/svg+xml</dc:format>
        <dc:type
           rdf:resource="http://purl.org/dc/dcmitype/StillImage" />
        <dc:title />
      </cc:Work>
    </rdf:RDF>
  </metadata>
  <g
     inkscape:label="Warstwa 1"
     inkscape:groupmode="layer"
     id="layer1">
    <rect
       style="fill:#d4aa00;stroke:none;stroke-width:0.165;stroke-linejoin:round"
       id="rect39"
       width="2.8706062"
       height="22.458273"
       x="5.7038765"
       y="13.512216"
       transform="rotate(-12.811207)" />
    <rect
       style="fill:#d4aa00;stroke:none;stroke-width:0.165;stroke-linejoin:round"
       id="rect47"
       width="2.8706062"
       height="22.458273"
       x="14.063831"
       y="6.0374379"
       transform="rotate(0.12177851)" />
    <rect
       style="fill:#ffdd55;stroke:none;stroke-width:0.165;stroke-linejoin:round"
       id="rect41"
       width="2.8706062"
       height="22.458273"
       x="11.164797"
       y="5.7672811"
       transform="rotate(-5.1721299)" />
    <rect
       style="fill:#ffd42a;stroke:none;stroke-width:0.165;stroke-linejoin:round"
       id="rect37"
       width="2.8706062"
       height="22.458273"
       x="6.84163"
       y="10.354218"
       transform="rotate(-12.811207)" />
    <rect
       style="fill:#ffcc00;stroke:none;stroke-width:0.165;stroke-linejoin:round"
       id="rect43"
       width="2.8706062"
       height="22.458273"
       x="15.405735"
       y="1.8191991"
       transform="rotate(0.12177851)" />
    <rect
       style="fill:#ffdd55;stroke:none;stroke-width:0.165;stroke-linejoin:round"
       id="rect45"
       width="2.8706062"
       height="22.458273"
       x="17.182074"
       y="3.3773732"
       transform="rotate(0.12177851)" />
    <rect
       style="fill:#d4aa00;stroke:none;stroke-width:0.165;stroke-linejoin:round"
       id="rect55"
       width="2.8706062"
       height="22.458273"
       x="23.361601"
       y="6.4096026"
       transform="rotate(0.0329833)" />
    <rect
       style="fill:#ffe680;stroke:none;stroke-width:0.165;stroke-linejoin:round"
       id="rect49"
       width="2.8706062"
       height="22.458273"
       x="12.707116"
       y="12.37329"
       transform="rotate(-14.198949)" />
    <rect
       style="fill:#ffcc00;stroke:none;stroke-width:0.165;stroke-linejoin:round"
       id="rect51"
       width="2.8706062"
       height="22.458273"
       x="20.63253"
       y="-1.9822855"
       transform="rotate(9.4977404)" />
    <rect
       style="fill:#ffdd55;stroke:none;stroke-width:0.165;stroke-linejoin:round"
       id="rect57"
       width="2.8706062"
       height="22.458273"
       x="21.440699"
       y="4.254107"
       transform="rotate(0.12177851)" />
    <rect
       style="fill:#ffdd55;stroke:none;stroke-width:0.165;stroke-linejoin:round"
       id="rect59"
       width="2.8706062"
       height="22.458273"
       x="23.520666"
       y="1.3844191"
       transform="rotate(4.0337593)" />
    <rect
       style="fill:#ffe680;stroke:none;stroke-width:0.165;stroke-linejoin:round"
       id="rect53"
       width="2.8706062"
       height="22.458273"
       x="24.617956"
       y="-2.3646634"
       transform="rotate(24.631577)" />
    <rect
       style="fill:#d4aa00;stroke:none;stroke-width:0.165;stroke-linejoin:round"
       id="rect91"
       width="2.8706062"
       height="22.458273"
       x="-45.422066"
       y="1.8861704"
       transform="matrix(-0.975106,-0.22173923,-0.22173923,0.975106,0,0)" />
    <rect
       style="fill:#d4aa00;stroke:none;stroke-width:0.165;stroke-linejoin:round"
       id="rect93"
       width="2.8706062"
       height="22.458273"
       x="-38.367222"
       y="6.1488767"
       transform="matrix(-0.99999774,0.00212543,0.00212543,0.99999774,0,0)" />
    <rect
       style="fill:#ffdd55;stroke:none;stroke-width:0.165;stroke-linejoin:round"
       id="rect95"
       width="2.8706062"
       height="22.458273"
       x="-41.052891"
       y="1.0407112"
       transform="matrix(-0.99592837,-0.09014815,-0.09014815,0.99592837,0,0)" />
    <rect
       style="fill:#ffd42a;stroke:none;stroke-width:0.165;stroke-linejoin:round"
       id="rect97"
       width="2.8706062"
       height="22.458273"
       x="-44.284313"
       y="-1.2718267"
       transform="matrix(-0.975106,-0.22173923,-0.22173923,0.975106,0,0)" />
    <rect
       style="fill:#ffcc00;stroke:none;stroke-width:0.165;stroke-linejoin:round"
       id="rect99"
       width="2.8706062"
       height="22.458273"
       x="-37.025318"
       y="1.9306377"
       transform="matrix(-0.99999774,0.00212543,0.00212543,0.99999774,0,0)" />
    <rect
       style="fill:#ffdd55;stroke:none;stroke-width:0.165;stroke-linejoin:round"
       id="rect101"
       width="2.8706062"
       height="22.458273"
       x="-35.248978"
       y="3.4888139"
       transform="matrix(-0.99999774,0.00212543,0.00212543,0.99999774,0,0)" />
    <rect
       style="fill:#d4aa00;stroke:none;stroke-width:0.165;stroke-linejoin:round"
       id="rect103"
       width="2.8706062"
       height="22.458273"
       x="-29.069553"
       y="6.4397869"
       transform="matrix(-0.99999983,5.7566715e-4,5.7566715e-4,0.99999983,0,0)" />
    <rect
       style="fill:#ffe680;stroke:none;stroke-width:0.165;stroke-linejoin:round"
       id="rect105"
       width="2.8706062"
       height="22.458273"
       x="-38.122265"
       y="-0.48752895"
       transform="matrix(-0.96944985,-0.2452896,-0.2452896,0.96944985,0,0)" />
    <rect
       style="fill:#ffcc00;stroke:none;stroke-width:0.165;stroke-linejoin:round"
       id="rect107"
       width="2.8706062"
       height="22.458273"
       x="-31.079918"
       y="6.6693163"
       transform="matrix(-0.98629211,0.16500871,0.16500871,0.98629211,0,0)" />
    <rect
       style="fill:#ffdd55;stroke:none;stroke-width:0.165;stroke-linejoin:round"
       id="rect109"
       width="2.8706062"
       height="22.458273"
       x="-30.990351"
       y="4.3655477"
       transform="matrix(-0.99999774,0.00212543,0.00212543,0.99999774,0,0)" />
    <rect
       style="fill:#ffdd55;stroke:none;stroke-width:0.165;stroke-linejoin:round"
       id="rect111"
       width="2.8706062"
       height="22.458273"
       x="-28.780613"
       y="5.0726476"
       transform="matrix(-0.99752278,0.07034424,0.07034424,0.99752278,0,0)" />
    <rect
       style="fill:#ffe680;stroke:none;stroke-width:0.165;stroke-linejoin:round"
       id="rect113"
       width="2.8706062"
       height="22.458273"
       x="-23.042316"
       y="19.48769"
       transform="matrix(-0.90900655,0.41678183,0.41678183,0.90900655,0,0)" />
    <g
       id="g422"
       transform="matrix(1,0,0,0.91528919,1e-6,7.3498513)">
      <g
         id="g304"
         transform="matrix(1.2968507,0,0,1.3245613,-7.8541756,-3.9140583)">
        <path
           id="rect216"
           style="fill:#ffd42a;stroke:none;stroke-width:0.165;stroke-linejoin:round"
           d="M 8.3581038,22.208674 C 12.952435,16.733534 19.326487,14.817838 26.458333,14.417728 l -1e-6,24.865357 z"
           sodipodi:nodetypes="cccc" />
        <circle
           style="fill:#aa0000;stroke:none;stroke-width:0.165;stroke-linejoin:round"
           id="path219"
           cx="15.611743"
           cy="22.357925"
           r="3.1939895" />
        <path
           id="rect213"
           style="fill:#916f6f;stroke:none;stroke-width:0.165;stroke-linejoin:round"
           d="M 8.3581038,18.746031 C 13.146797,13.672137 19.447625,12.054551 26.458333,12.059548 v 3.343242 c -9.21916,0.05205 -13.512489,3.505728 -18.1002292,6.805884 z"
           sodipodi:nodetypes="ccccc" />
        <path
           id="path223"
           style="fill:#ac9393;stroke:none;stroke-width:0.165;stroke-linejoin:round"
           d="M 8.3581038,18.746031 C 13.146797,13.672137 19.447625,12.054551 26.458333,12.059548 V 15.40279 C 16.587781,14.260625 12.677421,18.416408 8.3581038,22.208674 Z"
           sodipodi:nodetypes="ccccc" />
        <circle
           style="fill:#aa0000;stroke:none;stroke-width:0.165;stroke-linejoin:round"
           id="path221"
           cx="23.313139"
           cy="28.745905"
           r="2.4775805" />
        <g
           id="g235"
           transform="matrix(0.43513139,-0.81664204,0.81145198,0.50386832,-1.2759349,24.096515)">
          <path
             id="path225"
             style="fill:#b3b3b3;stroke:none;stroke-width:0.0732623;stroke-linejoin:round"
             d="m 21.79077,21.641518 h -0.545551 c -0.06227,-1.211549 -0.685454,-2.497824 -2.545899,-2.623665 -1.928119,0.11761 -2.354949,1.023343 -2.623834,2.623665 h -0.493593 c 0,-1.829936 1.389904,-3.313392 3.104438,-3.313392 1.714534,0 3.104439,1.483456 3.104439,3.313392 z"
             sodipodi:nodetypes="cccccsc" />
          <path
             id="path228"
             style="fill:#b3b3b3;stroke:none;stroke-width:0.0564775;stroke-linejoin:round"
             d="m 20.910338,21.823309 h -0.405263 c -0.04626,-0.969239 -0.509189,-1.998259 -1.89122,-2.098932 -1.432303,0.09409 -1.749374,0.818674 -1.949115,2.098932 h -0.366665 c 0,-1.463949 1.03249,-2.650714 2.306131,-2.650714 1.273641,0 2.306132,1.186765 2.306132,2.650714 z"
             sodipodi:nodetypes="cccccsc" />
          <path
             id="path230"
             style="fill:#b3b3b3;stroke:none;stroke-width:0.0388166;stroke-linejoin:round"
             d="m 20.112294,21.80072 h -0.271395 c -0.03099,-0.683674 -0.340992,-1.409516 -1.266507,-1.480528 -0.959181,0.06637 -1.171517,0.57747 -1.305278,1.480528 h -0.245548 c 0,-1.032629 0.691435,-1.86974 1.544364,-1.86974 0.852928,0 1.544364,0.837111 1.544364,1.86974 z"
             sodipodi:nodetypes="cccccsc" />
        </g>
        <g
           id="g261"
           transform="matrix(0.72312389,0,0,0.78531342,4.6248888,7.0050919)">
          <g
             id="g255"
             transform="rotate(73.233921,15.3329,26.183034)">
            <path
               id="path249"
               style="fill:#b3b3b3;stroke:none;stroke-width:0.0732623;stroke-linejoin:round"
               d="m 21.79077,21.641518 h -0.545551 c -0.06227,-1.211549 -0.685454,-2.497824 -2.545899,-2.623665 -1.928119,0.11761 -2.354949,1.023343 -2.623834,2.623665 h -0.493593 c 0,-1.829936 1.389904,-3.313392 3.104438,-3.313392 1.714534,0 3.104439,1.483456 3.104439,3.313392 z"
               sodipodi:nodetypes="cccccsc" />
            <path
               id="path251"
               style="fill:#b3b3b3;stroke:none;stroke-width:0.0564775;stroke-linejoin:round"
               d="m 20.910338,21.823309 h -0.405263 c -0.04626,-0.969239 -0.509189,-1.998259 -1.89122,-2.098932 -1.432303,0.09409 -1.749374,0.818674 -1.949115,2.098932 h -0.366665 c 0,-1.463949 1.03249,-2.650714 2.306131,-2.650714 1.273641,0 2.306132,1.186765 2.306132,2.650714 z"
               sodipodi:nodetypes="cccccsc" />
            <path
               id="path253"
               style="fill:#b3b3b3;stroke:none;stroke-width:0.0388166;stroke-linejoin:round"
               d="m 20.112294,21.80072 h -0.271395 c -0.03099,-0.683674 -0.340992,-1.409516 -1.266507,-1.480528 -0.959181,0.06637 -1.171517,0.57747 -1.305278,1.480528 h -0.245548 c 0,-1.032629 0.691435,-1.86974 1.544364,-1.86974 0.852928,0 1.544364,0.837111 1.544364,1.86974 z"
               sodipodi:nodetypes="cccccsc" />
          </g>
        </g>
        <g
           id="g269"
           transform="matrix(0.97590361,0,0,0.84782609,14.494933,-1.170084)">
          <ellipse
             style="fill:#333333;stroke:none;stroke-width:0.0977519;stroke-linejoin:round"
             id="path263"
             cx="5.8889632"
             cy="29.761433"
             rx="1.7519138"
             ry="1.9418807" />
          <ellipse
             style="fill:#4d4d4d;stroke:none;stroke-width:0.0854101;stroke-linejoin:round"
             id="path265"
             cx="5.8889647"
             cy="29.761435"
             rx="1.2031215"
             ry="1.3930882" />
        </g>
        <g
           id="g275"
           transform="matrix(0.97590361,0,0,0.84782609,17.872117,7.5683787)">
          <ellipse
             style="fill:#333333;stroke:none;stroke-width:0.0977519;stroke-linejoin:round"
             id="ellipse271"
             cx="5.8889632"
             cy="29.761433"
             rx="1.7519138"
             ry="1.9418807" />
          <ellipse
             style="fill:#4d4d4d;stroke:none;stroke-width:0.0854101;stroke-linejoin:round"
             id="ellipse273"
             cx="5.8889647"
             cy="29.761435"
             rx="1.2031215"
             ry="1.3930882" />
        </g>
        <path
           id="rect277"
           style="fill:#aad400;stroke:none;stroke-width:0.105289;stroke-linejoin:round"
           d="m 20.681584,17.770119 c -0.113328,0.681646 -0.227167,1.363863 -0.849644,2.613338 -0.529046,0.524519 -1.496051,2.455025 -3.417276,1.51837 0.337947,-0.471506 0.427498,-0.775527 0.629702,-0.837866 0.364302,-0.112253 0.777188,0.238671 1.415953,-0.471567 0.528636,-0.61749 0.893547,-1.944594 1.293563,-3.119544 z"
           sodipodi:nodetypes="cccsccc" />
        <path
           id="path280"
           style="fill:#88aa00;stroke:none;stroke-width:0.0770531;stroke-linejoin:round"
           d="m 25.210696,24.612701 c -0.326932,0.09173 -0.654146,0.184007 -1.26258,0.817842 -0.261329,0.566707 -1.201509,1.551909 -0.798146,3.757958 0.231878,-0.354892 0.378554,-0.439601 0.412689,-0.663398 0.06147,-0.403206 -0.09643,-0.885099 0.255717,-1.565325 0.30557,-0.5614 0.945263,-0.901987 1.513313,-1.289918 z"
           sodipodi:nodetypes="cccsccc" />
      </g>
      <path
         id="path306"
         style="fill:#ffd42a;stroke:none;stroke-width:0.216254;stroke-linejoin:round"
         d="M 49.931627,25.502692 C 43.973466,18.250533 35.707272,15.713076 26.458332,15.183106 l 2e-6,32.93569 z"
         sodipodi:nodetypes="cccc" />
      <ellipse
         style="fill:#aa0000;stroke:none;stroke-width:0.165362;stroke-linejoin:round"
         id="circle308"
         cx="-37.3606"
         cy="30.954048"
         transform="scale(-1,1)"
         rx="3.2466164"
         ry="3.1560214" />
      <path
         id="path310"
         style="fill:#916f6f;stroke:none;stroke-width:0.216254;stroke-linejoin:round"
         d="M 49.931627,20.916209 C 43.721407,14.195525 35.550174,12.052933 26.458332,12.059552 v 4.428329 c 11.955874,0.06894 17.523681,4.643552 23.473295,9.014811 z"
         sodipodi:nodetypes="ccccc" />
      <path
         id="path312"
         style="fill:#ac9393;stroke:none;stroke-width:0.216254;stroke-linejoin:round"
         d="M 49.931627,20.916209 C 43.721407,14.195525 35.550174,12.052933 26.458332,12.059552 v 4.428329 c 12.800633,-1.512867 17.871786,3.991722 23.473295,9.014811 z"
         sodipodi:nodetypes="ccccc" />
      <ellipse
         style="fill:#aa0000;stroke:none;stroke-width:0.216254;stroke-linejoin:round"
         id="circle314"
         cx="-32.447605"
         cy="21.923004"
         transform="scale(-1,1)"
         rx="3.213052"
         ry="3.2817073" />
      <g
         id="g322"
         transform="matrix(1.1670815,0.892235,0.95317927,-1.2523749,-9.3226409,33.732619)">
        <path
           id="path316"
           style="fill:#b3b3b3;stroke:none;stroke-width:0.0732623;stroke-linejoin:round"
           d="m 21.79077,21.641518 h -0.545551 c -0.06227,-1.211549 -0.685454,-2.497824 -2.545899,-2.623665 -1.928119,0.11761 -2.354949,1.023343 -2.623834,2.623665 h -0.493593 c 0,-1.829936 1.389904,-3.313392 3.104438,-3.313392 1.714534,0 3.104439,1.483456 3.104439,3.313392 z"
           sodipodi:nodetypes="cccccsc" />
        <path
           id="path318"
           style="fill:#b3b3b3;stroke:none;stroke-width:0.0564775;stroke-linejoin:round"
           d="m 20.910338,21.823309 h -0.405263 c -0.04626,-0.969239 -0.509189,-1.998259 -1.89122,-2.098932 -1.432303,0.09409 -1.749374,0.818674 -1.949115,2.098932 h -0.366665 c 0,-1.463949 1.03249,-2.650714 2.306131,-2.650714 1.273641,0 2.306132,1.186765 2.306132,2.650714 z"
           sodipodi:nodetypes="cccccsc" />
        <path
           id="path320"
           style="fill:#b3b3b3;stroke:none;stroke-width:0.0388166;stroke-linejoin:round"
           d="m 20.112294,21.80072 h -0.271395 c -0.03099,-0.683674 -0.340992,-1.409516 -1.266507,-1.480528 -0.959181,0.06637 -1.171517,0.57747 -1.305278,1.480528 h -0.245548 c 0,-1.032629 0.691435,-1.86974 1.544364,-1.86974 0.852928,0 1.544364,0.837111 1.544364,1.86974 z"
           sodipodi:nodetypes="cccccsc" />
      </g>
      <g
         id="g338"
         transform="matrix(-1.2656013,0,0,1.1229976,50.092376,-8.2101402)">
        <ellipse
           style="fill:#333333;stroke:none;stroke-width:0.0977519;stroke-linejoin:round"
           id="ellipse334"
           cx="5.8889632"
           cy="29.761433"
           rx="1.7519138"
           ry="1.9418807" />
        <ellipse
           style="fill:#4d4d4d;stroke:none;stroke-width:0.0854101;stroke-linejoin:round"
           id="ellipse336"
           cx="5.8889647"
           cy="29.761435"
           rx="1.2031215"
           ry="1.3930882" />
      </g>
      <path
         id="path346"
         style="fill:#aad400;stroke:none;stroke-width:0.137995;stroke-linejoin:round"
         d="m 36.73721,26.071813 c 0.243061,0.881883 0.486861,1.764447 1.46715,3.323212 0.756722,0.617077 2.278083,3.024722 4.622015,1.523725 -0.502789,-0.573871 -0.66149,-0.961769 -0.931067,-1.015709 -0.485678,-0.0971 -0.968129,0.422523 -1.89273,-0.423851 -0.769415,-0.739568 -1.428649,-2.436427 -2.111508,-3.928025 z"
         sodipodi:nodetypes="cccsccc" />
      <ellipse
         style="fill:#aa0000;stroke:none;stroke-width:0.130645;stroke-linejoin:round"
         id="ellipse374"
         cx="-29.898006"
         cy="39.640511"
         transform="scale(-1,1)"
         rx="2.5899084"
         ry="2.4694629" />
      <g
         id="g332"
         transform="matrix(-0.76121939,-0.84319172,-0.78593354,0.77940008,70.078898,35.019815)">
        <g
           id="g330"
           transform="rotate(73.233921,15.3329,26.183034)">
          <path
             id="path324"
             style="fill:#b3b3b3;stroke:none;stroke-width:0.0732623;stroke-linejoin:round"
             d="m 21.79077,21.641518 h -0.545551 c -0.06227,-1.211549 -0.685454,-2.497824 -2.545899,-2.623665 -1.928119,0.11761 -2.354949,1.023343 -2.623834,2.623665 h -0.493593 c 0,-1.829936 1.389904,-3.313392 3.104438,-3.313392 1.714534,0 3.104439,1.483456 3.104439,3.313392 z"
             sodipodi:nodetypes="cccccsc" />
          <path
             id="path326"
             style="fill:#b3b3b3;stroke:none;stroke-width:0.0564775;stroke-linejoin:round"
             d="m 20.910338,21.823309 h -0.405263 c -0.04626,-0.969239 -0.509189,-1.998259 -1.89122,-2.098932 -1.432303,0.09409 -1.749374,0.818674 -1.949115,2.098932 h -0.366665 c 0,-1.463949 1.03249,-2.650714 2.306131,-2.650714 1.273641,0 2.306132,1.186765 2.306132,2.650714 z"
             sodipodi:nodetypes="cccccsc" />
          <path
             id="path328"
             style="fill:#b3b3b3;stroke:none;stroke-width:0.0388166;stroke-linejoin:round"
             d="m 20.112294,21.80072 h -0.271395 c -0.03099,-0.683674 -0.340992,-1.409516 -1.266507,-1.480528 -0.959181,0.06637 -1.171517,0.57747 -1.305278,1.480528 h -0.245548 c 0,-1.032629 0.691435,-1.86974 1.544364,-1.86974 0.852928,0 1.544364,0.837111 1.544364,1.86974 z"
             sodipodi:nodetypes="cccccsc" />
        </g>
      </g>
      <g
         id="g344"
         transform="matrix(-1.2656013,0,0,1.1229976,38.130679,-1.7697742)">
        <ellipse
           style="fill:#333333;stroke:none;stroke-width:0.0977519;stroke-linejoin:round"
           id="ellipse340"
           cx="5.8889632"
           cy="29.761433"
           rx="1.7519138"
           ry="1.9418807" />
        <ellipse
           style="fill:#4d4d4d;stroke:none;stroke-width:0.0854101;stroke-linejoin:round"
           id="ellipse342"
           cx="5.8889647"
           cy="29.761435"
           rx="1.2031215"
           ry="1.3930882" />
      </g>
      <path
         id="path348"
         style="fill:#88aa00;stroke:none;stroke-width:0.110247;stroke-linejoin:round"
         d="m 30.635436,32.509688 c -0.426036,0.167421 -0.852407,0.335706 -1.609971,1.360969 -0.302934,0.894144 -1.473118,2.487319 -0.770665,5.854757 0.28007,-0.565385 0.467889,-0.707617 0.496041,-1.055215 0.05068,-0.626254 -0.195208,-1.356279 0.219367,-2.432601 0.361934,-0.889492 1.18326,-1.465343 1.906082,-2.108439 z"
         sodipodi:nodetypes="cccsccc" />
    </g>
    <path
       id="rect430"
       style="fill:#d35f5f;stroke:none;stroke-width:0.118923;stroke-linejoin:round"
       d="M 2.6458333,39.158333 H 26.458333 v 9.921875 l -16.310416,0.0474 -7.5020837,-2.16407 z"
       sodipodi:nodetypes="cccccc" />
    <path
       id="path433"
       style="fill:#d35f5f;stroke:none;stroke-width:0.118923;stroke-linejoin:round"
       d="m 50.270833,39.158333 h -23.8125 v 9.921875 l 16.310416,0.0474 7.502084,-2.16407 z"
       sodipodi:nodetypes="cccccc" />
    <rect
       style="fill:#ff8080;stroke:none;stroke-width:0.168182;stroke-linejoin:round"
       id="rect428"
       width="47.625"
       height="9.921875"
       x="2.6458333"
       y="37.041668" />
    <text
       xml:space="preserve"
       style="font-weight:300;font-size:8.46292305px;line-height:1.25;font-family:'Segoe UI';-inkscape-font-specification:'Segoe UI, Light';stroke-width:0.793396"
       x="21.483648"
       y="52.900299"
       id="text426"
       transform="scale(1.1982946,0.83451933)"><tspan
         sodipodi:role="line"
         id="tspan424"
         x="21.483648"
         y="52.900299"
         style="font-style:normal;font-variant:normal;font-weight:normal;font-stretch:normal;font-size:9.1675415px;font-family:'Jenna Sue';-inkscape-font-specification:'Jenna Sue, Normal';font-variant-ligatures:normal;font-variant-caps:normal;font-variant-numeric:normal;font-feature-settings:normal;text-align:center;writing-mode:lr-tb;text-anchor:middle;stroke-width:0.793396">Pitza'n'Fryty</tspan></text>
  </g>
</svg>
